<svg width="344" height="314" xmlns="http://www.w3.org/2000/svg" xmlns:xlink="http://www.w3.org/1999/xlink" overflow="hidden"><g transform="translate(-468 -203)"><path d="M515 279 515 313.533C515 329.767 552.054 346 598 346 643.947 346 681 329.767 681 313.533L681 279 598 308.22 515 279Z" fill="#FFFFFF" fill-rule="evenodd"/><path d="M598.5 294.887 728 249.389 598.5 203 469 249.389 485.633 255.337 485.633 310.053C485.633 313.324 488.306 316 491.573 316 494.841 316 497.514 313.324 497.514 310.053L497.514 259.5 598.5 294.887Z" fill="#FFFFFF" fill-rule="evenodd"/><path d="M811 422.463C811 401.614 799.382 371.055 774.427 371.055L721.08 371.055C719.755 368.38 717.466 366.314 714.678 365.277 711.826 364.118 708.638 364.118 705.786 365.277 703.512 363.202 700.56 362.037 697.488 362 694.032 361.971 690.721 363.397 688.36 365.932 685.186 364.532 681.574 364.532 678.401 365.932 676.04 366.998 674.078 368.792 672.8 371.055 672.8 371.055 594.319 371.055 594.082 371.234 577.041 373.17 564 394.615 564 421.689 564 450.074 578.315 472.323 596.601 472.323L666.25 472.323 666.25 517 695.888 493.917 725.525 517 725.525 472.323 795.174 472.323C798.447 472.323 801.101 469.656 801.101 466.366 801.101 463.076 798.447 460.409 795.174 460.409 786.589 460.797 779.304 454.142 778.873 445.517L796.656 445.517C803.591 445.517 811 439.56 811 422.463ZM696.895 383.505C711.267 383.505 722.917 395.213 722.917 409.656 722.917 424.099 711.266 435.807 696.895 435.807 682.57 435.807 670.939 424.171 670.874 409.775 670.808 395.333 682.405 383.571 696.776 383.505 696.816 383.505 696.855 383.505 696.895 383.505ZM660.5 382.969C660.441 383.722 660.441 384.479 660.5 385.232 654.169 387.737 651.043 394.913 653.506 401.286 651.371 403.598 650.167 406.622 650.127 409.775 650.163 413.165 651.576 416.394 654.039 418.71 652.648 421.89 652.648 425.509 654.039 428.688 654.855 430.615 656.139 432.305 657.773 433.603L624.52 433.603C626.596 428.913 627.685 423.843 627.721 418.71 627.721 403.818 624.105 391.428 618.029 382.969ZM596.601 460.409C586.584 460.409 575.855 444.862 575.855 421.689 575.855 398.517 586.584 382.969 596.601 382.969 607.775 382.969 615.866 397.861 615.866 418.71 615.866 418.71 615.659 433.603 606.975 433.603 602.766 433.603 598.083 426.604 598.083 417.221 598.069 415.219 598.277 413.22 598.706 411.264 599.418 408.049 597.401 404.861 594.201 404.146 591.001 403.43 587.829 405.457 587.117 408.673 586.51 411.481 586.212 414.348 586.228 417.221 586.228 433.097 595.357 445.517 606.975 445.517L666.25 445.517 666.25 460.409ZM695.888 478.846 678.105 492.696 678.105 452.933C678.792 453.365 679.516 453.734 680.269 454.035 683.128 455.153 686.3 455.153 689.16 454.035 691.444 456.166 694.431 457.376 697.547 457.431 701 457.446 704.305 456.022 706.676 453.499 708.883 454.432 711.307 454.721 713.67 454.333L713.67 492.696ZM725.525 460.409 725.525 446.559C726.427 446.3 727.301 445.951 728.133 445.517L767.018 445.517C767.018 450.86 768.687 456.069 771.79 460.409ZM735.602 433.603C738.415 432.295 740.606 429.932 741.707 427.02 742.81 424.145 742.81 420.961 741.707 418.085 743.801 415.818 744.966 412.839 744.968 409.745 744.983 406.275 743.566 402.954 741.055 400.572 742.434 397.38 742.434 393.756 741.055 390.564 739.833 387.69 737.549 385.405 734.683 384.19 734.629 383.776 734.54 383.368 734.417 382.969L774.427 382.969C786.282 382.969 793.929 395.925 797.159 408.048 800.924 422.285 798.434 432.561 796.656 433.603Z" fill="#FFFFFF" fill-rule="evenodd"/></g></svg>