<svg viewBox="0 0 96 96" xmlns="http://www.w3.org/2000/svg" xmlns:xlink="http://www.w3.org/1999/xlink" id="Icons_WeddingRings" overflow="hidden"><path d="M55.45 38.71C53.6502 39.9546 51.9756 41.3713 50.45 42.94 56.6301 53.1889 53.3317 66.5072 43.0828 72.6873 32.8339 78.8674 19.5156 75.569 13.3355 65.3201 7.15539 55.0712 10.4538 41.7528 20.7027 35.5728 26.288 32.2048 33.0931 31.5317 39.23 33.74 40.7118 31.9222 42.3885 30.2723 44.23 28.82 30.3191 22.0656 13.5666 27.867 6.81217 41.7778 0.0577258 55.6887 5.85915 72.4412 19.77 79.1957 33.6809 85.9501 50.4334 80.1487 57.1878 66.2378 59.0396 62.4241 60.0012 58.2396 60 54 60 42 55.45 38.71 55.45 38.71Z"/><path d="M74.86 28.18 70.07 33.35C81.4678 36.7185 87.9769 48.689 84.6083 60.0868 81.2398 71.4846 69.2693 77.9937 57.8715 74.6252 57.4944 74.5137 57.1204 74.3919 56.75 74.26 55.2633 76.0704 53.5871 77.7164 51.75 79.17 65.8269 85.5712 82.4277 79.3488 88.8289 65.2719 95.23 51.1949 89.0076 34.5942 74.9307 28.193 74.9138 28.1853 74.8969 28.1777 74.88 28.17Z"/><path d="M57.93 33.35 53.14 28.18C38.8852 34.1745 32.1889 50.5899 38.1834 64.8447 38.8366 66.398 39.6287 67.8891 40.55 69.3 42.4655 68.222 44.1615 66.7939 45.55 65.09 43.4666 61.7711 42.3931 57.9181 42.46 54 42.4476 44.4413 48.7531 36.0245 57.93 33.35Z"/><path d="M56 14 51 20 64 34 77 20 72 14 56 14Z"/></svg>